<svg width="330" height="366" viewBox="0 0 330 366" fill="none" xmlns="http://www.w3.org/2000/svg">
<mask id="path-1-inside-1_1_338" fill="white">
<path fill-rule="evenodd" clip-rule="evenodd" d="M-54.8529 177.991C-51.5486 151.284 -31.5383 130.746 -7.34689 130.746C8.66092 130.746 22.8379 139.739 31.5552 153.562C40.2284 145.414 52.1717 140.38 65.3571 140.38C72.3508 140.38 78.9951 141.796 84.9872 144.342C90.9794 141.796 97.6236 140.38 104.617 140.38C128.648 140.38 148.553 157.1 152.055 178.919C152.237 178.917 152.42 178.916 152.602 178.916C179.103 178.916 200.587 199.25 200.587 224.333C200.587 226.359 200.447 228.354 200.175 230.309C208.853 221.513 220.818 216.075 234.031 216.075C260.532 216.075 282.015 237.95 282.015 264.933C282.015 269.98 281.264 274.849 279.868 279.429C280.58 279.399 281.296 279.384 282.015 279.384C308.517 279.384 330 299.718 330 324.801C330 339.963 322.15 353.39 310.087 361.639C308.375 369.417 304.561 376.465 299.232 382.227C300.331 384.54 300.918 386.973 300.918 389.486C300.918 404.688 279.435 417.012 252.934 417.012C244.292 417.012 236.184 415.701 229.18 413.408C194.779 470.143 105.116 510.598 -0.0765381 510.598C-109.683 510.598 -202.43 466.676 -233.37 406.18C-236.9 406.964 -240.58 407.378 -244.362 407.378C-270.863 407.378 -292.347 387.044 -292.347 361.961C-292.347 344.903 -282.411 330.041 -267.719 322.278C-269.542 317.478 -270.536 312.303 -270.536 306.909C-270.536 281.826 -249.052 261.492 -222.551 261.492C-222.287 261.492 -222.024 261.494 -221.761 261.498C-217.661 240.355 -198.09 224.333 -174.566 224.333C-165.865 224.333 -157.704 226.525 -150.667 230.358C-151.084 227.95 -151.301 225.477 -151.301 222.957C-151.301 197.874 -129.818 177.54 -103.316 177.54C-93.0303 177.54 -83.5002 180.603 -75.6888 185.818C-69.6282 181.772 -62.533 179.021 -54.8529 177.991Z"/>
</mask>
<path fill-rule="evenodd" clip-rule="evenodd" d="M-54.8529 177.991C-51.5486 151.284 -31.5383 130.746 -7.34689 130.746C8.66092 130.746 22.8379 139.739 31.5552 153.562C40.2284 145.414 52.1717 140.38 65.3571 140.38C72.3508 140.38 78.9951 141.796 84.9872 144.342C90.9794 141.796 97.6236 140.38 104.617 140.38C128.648 140.38 148.553 157.1 152.055 178.919C152.237 178.917 152.42 178.916 152.602 178.916C179.103 178.916 200.587 199.25 200.587 224.333C200.587 226.359 200.447 228.354 200.175 230.309C208.853 221.513 220.818 216.075 234.031 216.075C260.532 216.075 282.015 237.95 282.015 264.933C282.015 269.98 281.264 274.849 279.868 279.429C280.58 279.399 281.296 279.384 282.015 279.384C308.517 279.384 330 299.718 330 324.801C330 339.963 322.15 353.39 310.087 361.639C308.375 369.417 304.561 376.465 299.232 382.227C300.331 384.54 300.918 386.973 300.918 389.486C300.918 404.688 279.435 417.012 252.934 417.012C244.292 417.012 236.184 415.701 229.18 413.408C194.779 470.143 105.116 510.598 -0.0765381 510.598C-109.683 510.598 -202.43 466.676 -233.37 406.18C-236.9 406.964 -240.58 407.378 -244.362 407.378C-270.863 407.378 -292.347 387.044 -292.347 361.961C-292.347 344.903 -282.411 330.041 -267.719 322.278C-269.542 317.478 -270.536 312.303 -270.536 306.909C-270.536 281.826 -249.052 261.492 -222.551 261.492C-222.287 261.492 -222.024 261.494 -221.761 261.498C-217.661 240.355 -198.09 224.333 -174.566 224.333C-165.865 224.333 -157.704 226.525 -150.667 230.358C-151.084 227.95 -151.301 225.477 -151.301 222.957C-151.301 197.874 -129.818 177.54 -103.316 177.54C-93.0303 177.54 -83.5002 180.603 -75.6888 185.818C-69.6282 181.772 -62.533 179.021 -54.8529 177.991Z" fill="#8F9DD6"/>
<path d="M-54.8529 177.991L-51.8756 178.359L-52.1599 180.657L-54.4542 180.964L-54.8529 177.991ZM31.5552 153.562L33.6093 155.748L30.9581 158.239L29.0177 155.162L31.5552 153.562ZM84.9872 144.342L86.1603 147.103L84.9872 147.602L83.8141 147.103L84.9872 144.342ZM152.055 178.919L152.087 181.919L149.503 181.946L149.093 179.394L152.055 178.919ZM200.175 230.309L202.311 232.416L195.959 238.855L197.204 229.897L200.175 230.309ZM279.868 279.429L279.993 282.426L275.765 282.602L276.998 278.554L279.868 279.429ZM310.087 361.639L307.157 360.994L307.413 359.834L308.394 359.163L310.087 361.639ZM299.232 382.227L296.523 383.515L295.651 381.681L297.03 380.19L299.232 382.227ZM229.18 413.408L226.615 411.852L227.85 409.816L230.114 410.557L229.18 413.408ZM-233.37 406.18L-234.019 403.252L-231.755 402.749L-230.699 404.814L-233.37 406.18ZM-267.719 322.278L-264.914 321.212L-263.973 323.691L-266.317 324.93L-267.719 322.278ZM-221.761 261.498L-218.816 262.069L-219.294 264.536L-221.807 264.498L-221.761 261.498ZM-150.667 230.358L-147.711 229.846L-146.652 235.961L-152.102 232.993L-150.667 230.358ZM-75.6888 185.818L-74.023 188.313L-75.6888 189.425L-77.3546 188.313L-75.6888 185.818ZM-7.34689 133.746C-29.6972 133.746 -48.7141 152.807 -51.8756 178.359L-57.8302 177.623C-54.383 149.761 -33.3794 127.746 -7.34689 127.746V133.746ZM29.0177 155.162C20.7598 142.068 7.47266 133.746 -7.34689 133.746V127.746C9.84918 127.746 24.916 137.41 34.0927 151.961L29.0177 155.162ZM65.3571 143.38C52.9429 143.38 41.732 148.117 33.6093 155.748L29.5012 151.375C38.7248 142.71 51.4005 137.38 65.3571 137.38V143.38ZM83.8141 147.103C78.1891 144.713 71.9435 143.38 65.3571 143.38V137.38C72.7581 137.38 79.801 138.879 86.1603 141.581L83.8141 147.103ZM104.617 143.38C98.0309 143.38 91.7853 144.713 86.1603 147.103L83.8141 141.581C90.1734 138.879 97.2163 137.38 104.617 137.38V143.38ZM149.093 179.394C145.84 159.126 127.274 143.38 104.617 143.38V137.38C130.022 137.38 151.266 155.074 155.017 178.444L149.093 179.394ZM152.602 181.916C152.43 181.916 152.258 181.917 152.087 181.919L152.024 175.919C152.216 175.917 152.409 175.916 152.602 175.916V181.916ZM197.587 224.333C197.587 201.06 177.604 181.916 152.602 181.916V175.916C180.603 175.916 203.587 197.44 203.587 224.333H197.587ZM197.204 229.897C197.456 228.077 197.587 226.22 197.587 224.333H203.587C203.587 226.498 203.437 228.63 203.146 230.722L197.204 229.897ZM234.031 219.075C221.661 219.075 210.454 224.162 202.311 232.416L198.039 228.203C207.252 218.864 219.975 213.075 234.031 213.075V219.075ZM279.015 264.933C279.015 239.555 258.824 219.075 234.031 219.075V213.075C262.239 213.075 285.015 236.344 285.015 264.933H279.015ZM276.998 278.554C278.308 274.255 279.015 269.681 279.015 264.933H285.015C285.015 270.279 284.219 275.442 282.738 280.303L276.998 278.554ZM282.015 282.384C281.337 282.384 280.663 282.398 279.993 282.426L279.743 276.431C280.497 276.4 281.254 276.384 282.015 276.384V282.384ZM327 324.801C327 301.528 307.017 282.384 282.015 282.384V276.384C310.016 276.384 333 297.908 333 324.801H327ZM308.394 359.163C319.712 351.423 327 338.888 327 324.801H333C333 341.039 324.589 355.357 311.781 364.116L308.394 359.163ZM297.03 380.19C302.015 374.799 305.565 368.226 307.157 360.994L313.017 362.284C311.184 370.608 307.106 378.131 301.435 384.264L297.03 380.19ZM297.918 389.486C297.918 387.453 297.446 385.457 296.523 383.515L301.942 380.939C303.217 383.622 303.918 386.494 303.918 389.486H297.918ZM252.934 414.012C265.757 414.012 277.219 411.024 285.371 406.347C293.606 401.623 297.918 395.552 297.918 389.486H303.918C303.918 398.622 297.489 406.313 288.357 411.552C279.142 416.838 266.612 420.012 252.934 420.012V414.012ZM230.114 410.557C236.796 412.745 244.588 414.012 252.934 414.012V420.012C243.996 420.012 235.571 418.657 228.247 416.259L230.114 410.557ZM-0.0765381 507.598C104.595 507.598 192.984 467.316 226.615 411.852L231.745 414.963C196.573 472.97 105.636 513.598 -0.0765381 513.598V507.598ZM-230.699 404.814C-215.635 434.269 -185.348 459.979 -144.981 478.345C-104.654 496.692 -54.4951 507.598 -0.0765381 507.598V513.598C-55.2648 513.598 -106.283 502.543 -147.466 483.806C-188.609 465.087 -220.165 438.588 -236.041 407.546L-230.699 404.814ZM-244.362 404.378C-240.799 404.378 -237.337 403.988 -234.019 403.252L-232.72 409.109C-236.462 409.939 -240.36 410.378 -244.362 410.378V404.378ZM-289.347 361.961C-289.347 385.234 -269.364 404.378 -244.362 404.378V410.378C-272.363 410.378 -295.347 388.854 -295.347 361.961H-289.347ZM-266.317 324.93C-280.121 332.224 -289.347 346.118 -289.347 361.961H-295.347C-295.347 343.688 -284.702 327.858 -269.121 319.625L-266.317 324.93ZM-267.536 306.909C-267.536 311.932 -266.611 316.746 -264.914 321.212L-270.523 323.343C-272.473 318.21 -273.536 312.675 -273.536 306.909H-267.536ZM-222.551 264.492C-247.553 264.492 -267.536 283.636 -267.536 306.909H-273.536C-273.536 280.016 -250.552 258.492 -222.551 258.492V264.492ZM-221.807 264.498C-222.054 264.494 -222.302 264.492 -222.551 264.492V258.492C-222.272 258.492 -221.993 258.494 -221.715 258.499L-221.807 264.498ZM-174.566 227.333C-196.742 227.333 -215.006 242.422 -218.816 262.069L-224.706 260.927C-220.316 238.288 -199.438 221.333 -174.566 221.333V227.333ZM-152.102 232.993C-158.704 229.397 -166.372 227.333 -174.566 227.333V221.333C-165.357 221.333 -156.704 223.654 -149.232 227.724L-152.102 232.993ZM-148.301 222.957C-148.301 225.305 -148.099 227.606 -147.711 229.846L-153.623 230.87C-154.069 228.293 -154.301 225.65 -154.301 222.957H-148.301ZM-103.316 180.54C-128.318 180.54 -148.301 199.684 -148.301 222.957H-154.301C-154.301 196.063 -131.317 174.54 -103.316 174.54V180.54ZM-77.3546 188.313C-84.6795 183.423 -93.6312 180.54 -103.316 180.54V174.54C-92.4294 174.54 -82.3209 177.783 -74.023 183.323L-77.3546 188.313ZM-54.4542 180.964C-61.6768 181.933 -68.3392 184.518 -74.023 188.313L-77.3546 183.323C-70.9172 179.025 -63.3893 176.109 -55.2516 175.018L-54.4542 180.964Z" fill="black" mask="url(#path-1-inside-1_1_338)"/>
</svg>
